<?xml version="1.0" encoding="iso-8859-1"?>
<!-- Uploaded to: SVG Repo, www.svgrepo.com, Generator: SVG Repo Mixer Tools -->
<svg fill="#000000" height="800px" width="800px" version="1.1" id="Layer_1" xmlns="http://www.w3.org/2000/svg" xmlns:xlink="http://www.w3.org/1999/xlink" 
	 viewBox="0 0 512.003 512.003" xml:space="preserve">
<g>
	<g>
		<path d="M339.031,221.609c-13.961-33.704-46.594-55.481-83.138-55.481c-11.79,0-23.325,2.302-34.287,6.842
			c-21.853,9.052-38.933,26.004-48.217,47.78c-0.154,0.276-0.296,0.56-0.42,0.858c-0.124,0.299-0.223,0.601-0.309,0.904
			c-8.833,21.964-8.742,46.029,0.309,67.88c13.96,33.703,46.593,55.481,83.137,55.481c11.79,0,23.325-2.302,34.287-6.842
			c21.927-9.082,39.051-26.117,48.315-48.001c0.11-0.211,0.231-0.414,0.324-0.638c0.124-0.298,0.223-0.601,0.309-0.904
			C348.173,267.526,348.083,243.461,339.031,221.609z M291.52,191.6c12.001,6.609,22.075,16.531,28.871,28.887l-15.219,6.304
			c-4.938-8.342-11.83-15.164-19.949-19.985L291.52,191.6z M255.892,182.468c7.076,0.001,13.968,1.01,20.524,2.897l-6.295,15.199
			c-4.549-1.153-9.289-1.766-14.14-1.766c-4.781,0-9.496,0.6-14.096,1.778l-6.299-15.205
			C242.187,183.452,248.986,182.468,255.892,182.468z M220.49,191.623l6.299,15.205c-8.253,4.879-15.082,11.708-19.963,19.963
			l-15.175-6.286C198.361,208.275,208.295,198.326,220.49,191.623z M185.398,235.601l15.175,6.286
			c-2.386,9.287-2.386,18.944,0,28.23l-15.206,6.299C181.483,263.051,181.494,248.993,185.398,235.601z M220.481,320.404
			c-12.003-6.609-22.076-16.531-28.872-28.887l15.219-6.304c4.938,8.342,11.83,15.164,19.951,19.985L220.481,320.404z
			 M256.108,329.536c-7.076-0.001-13.968-1.01-20.524-2.897l6.295-15.199c4.549,1.153,9.289,1.766,14.14,1.766
			c4.781,0,9.496-0.6,14.096-1.778l6.299,15.205C269.813,328.551,263.014,329.536,256.108,329.536z M271.633,293.744
			c-5.002,2.072-10.255,3.122-15.614,3.122c-5.464,0-10.728-1.094-15.569-3.083c-0.028-0.012-0.055-0.027-0.083-0.039
			c-9.845-4.083-17.87-11.876-22.109-22.109c-4.176-10.081-4.176-21.185,0-31.266c4.175-10.081,12.028-17.933,22.109-22.109
			c5.002-2.072,10.255-3.122,15.614-3.122c5.464,0,10.728,1.094,15.569,3.083c0.028,0.012,0.054,0.027,0.083,0.039
			c9.846,4.083,17.87,11.876,22.109,22.109c4.176,10.081,4.176,21.185,0,31.266C289.566,281.716,281.713,289.568,271.633,293.744z
			 M291.51,320.381l-6.299-15.205c8.253-4.879,15.082-11.708,19.963-19.963l15.175,6.286
			C313.639,303.729,303.705,313.677,291.51,320.381z M326.602,276.402l-15.175-6.286c2.386-9.287,2.386-18.944,0-28.23l15.206-6.299
			C330.517,248.952,330.506,263.011,326.602,276.402z"/>
	</g>
</g>
<g>
	<g>
		<path d="M508.913,249.605l-48.37-38.443c-10.183-8.081-22.457-12.352-35.496-12.352c-17.147,0-32.983,7.532-43.702,20.252
			c-3.282-3.874-7.081-7.347-11.365-10.274c0.961-5.098,1.191-10.24,0.772-15.3c1.62,0.138,3.238,0.214,4.852,0.214
			c14.91,0,29.432-5.855,40.371-16.795c9.217-9.217,14.875-20.904,16.364-33.806l7.02-61.414c0.283-2.475-0.578-4.943-2.34-6.705
			c-1.76-1.761-4.232-2.624-6.705-2.34l-61.387,7.02c-12.915,1.487-24.616,7.146-33.836,16.364
			c-12.125,12.125-17.995,28.649-16.58,45.225c-1.565-0.127-3.14-0.207-4.728-0.207c-3.558,0-7.094,0.329-10.57,0.979
			c-2.927-4.287-6.401-8.086-10.277-11.37c12.721-10.719,20.255-26.554,20.255-43.7c0-13.034-4.262-25.299-12.332-35.477
			L262.396,3.088c-1.55-1.95-3.905-3.086-6.396-3.086c-2.491,0-4.847,1.136-6.396,3.086l-38.443,48.371
			c-8.082,10.184-12.353,22.459-12.353,35.497c0,17.147,7.533,32.982,20.252,43.701c-3.875,3.283-7.349,7.083-10.276,11.369
			c-3.476-0.651-7.013-0.979-10.57-0.979c-1.588,0-3.164,0.08-4.73,0.207c1.416-16.576-4.454-33.1-16.578-45.225
			c-9.217-9.217-20.904-14.875-33.807-16.365l-61.415-7.019c-2.47-0.279-4.943,0.58-6.705,2.34c-1.761,1.761-2.622,4.23-2.339,6.705
			l7.02,61.385c1.486,12.914,7.146,24.615,16.364,33.835c10.942,10.942,25.462,16.797,40.372,16.796
			c1.613,0,3.232-0.075,4.851-0.214c-0.417,5.06-0.187,10.201,0.772,15.298c-4.284,2.927-8.083,6.4-11.366,10.275
			c-10.72-12.721-26.555-20.253-43.701-20.253c-13.035,0-25.3,4.263-35.476,12.333L3.086,249.606C1.136,251.156,0,253.51,0,256.002
			c0,2.491,1.136,4.847,3.087,6.397l48.37,38.443c10.183,8.081,22.457,12.352,35.496,12.352c17.147,0,32.983-7.532,43.702-20.252
			c3.282,3.874,7.081,7.347,11.365,10.273c-0.961,5.099-1.191,10.241-0.772,15.302c-16.576-1.415-33.099,4.456-45.223,16.579
			c-9.217,9.217-14.875,20.904-16.364,33.806l-7.02,61.414c-0.283,2.475,0.578,4.943,2.34,6.705c1.54,1.541,3.622,2.393,5.777,2.393
			c0.308,0,0.618-0.017,0.929-0.052l61.387-7.02c12.915-1.487,24.616-7.146,33.836-16.364c12.125-12.125,17.995-28.65,16.58-45.226
			c1.565,0.127,3.14,0.207,4.728,0.207c3.558,0,7.093-0.328,10.57-0.979c2.927,4.286,6.402,8.085,10.278,11.37
			c-12.722,10.719-20.255,26.554-20.255,43.7c0,13.034,4.262,25.299,12.332,35.477l38.464,48.391c1.55,1.95,3.905,3.086,6.396,3.086
			c2.491,0,4.847-1.136,6.396-3.086l38.442-48.37c8.082-10.184,12.353-22.459,12.353-35.497c0-17.147-7.533-32.983-20.252-43.701
			c3.875-3.283,7.349-7.083,10.276-11.369c3.476,0.65,7.013,0.979,10.57,0.979c1.59,0,3.165-0.08,4.73-0.207
			c-1.416,16.576,4.454,33.1,16.578,45.226c9.217,9.217,20.904,14.875,33.807,16.365l61.415,7.019
			c0.309,0.035,0.62,0.052,0.929,0.052c2.154,0,4.237-0.853,5.777-2.393c1.761-1.761,2.622-4.23,2.339-6.705l-7.02-61.385
			c-1.486-12.914-7.146-24.615-16.364-33.834c-12.125-12.125-28.649-17.997-45.223-16.581c0.418-5.06,0.187-10.202-0.772-15.3
			c4.284-2.927,8.083-6.4,11.366-10.275c10.72,12.721,26.555,20.253,43.701,20.253c13.035,0,25.3-4.263,35.476-12.333l48.391-38.463
			c1.95-1.55,3.086-3.904,3.086-6.396C512,253.51,510.864,251.155,508.913,249.605z M86.953,296.853
			c-9.312,0-18.074-3.047-25.334-8.809l-40.317-32.042l40.336-32.061c7.251-5.75,16.005-8.789,25.316-8.789
			c14.157,0,27.052,7.195,34.51,18.984c-1.801,4.354-3.07,8.948-3.752,13.697H60.694c-4.513,0-8.17,3.658-8.17,8.17
			c0,4.512,3.657,8.17,8.17,8.17h57.018c0.682,4.75,1.951,9.343,3.753,13.699C114.007,289.659,101.111,296.853,86.953,296.853z
			 M346.648,107.582c6.584-6.584,14.934-10.626,24.142-11.686l51.167-5.852l-5.851,51.192c-1.062,9.193-5.103,17.532-11.688,24.116
			c-10.01,10.01-24.215,14.041-37.826,10.977c-1.806-4.352-4.156-8.497-7.032-12.337l40.318-40.318
			c3.191-3.191,3.191-8.364,0-11.554c-3.192-3.191-8.364-3.191-11.555,0l-40.302,40.301c-3.837-2.88-7.985-5.251-12.365-7.062
			C332.615,131.765,336.648,117.581,346.648,107.582z M215.149,86.956c0-9.312,3.048-18.074,8.809-25.334L256,21.303l32.062,40.336
			c5.75,7.252,8.789,16.006,8.789,25.317c0,14.157-7.195,27.052-18.985,34.51c-4.354-1.801-8.948-3.07-13.695-3.752V60.695
			c0-4.512-3.657-8.17-8.17-8.17c-4.513,0-8.17,3.658-8.17,8.17v57.018c-4.748,0.682-9.342,1.951-13.698,3.753
			C222.343,114.009,215.149,101.113,215.149,86.956z M107.581,165.354c-6.585-6.585-10.627-14.935-11.687-24.142l-5.852-51.167
			l51.192,5.851c9.194,1.062,17.534,5.103,24.117,11.687c9.999,9.999,14.031,24.185,10.987,37.78
			c-4.379,1.813-8.526,4.182-12.362,7.062l-40.302-40.302c-3.192-3.191-8.364-3.191-11.555,0s-3.191,8.364,0,11.554l40.318,40.318
			c-2.876,3.84-5.227,7.986-7.033,12.339C131.796,179.396,117.592,175.366,107.581,165.354z M165.352,404.422
			c-6.584,6.584-14.934,10.626-24.142,11.686l-51.167,5.852l5.851-51.192c1.062-9.193,5.103-17.532,11.688-24.116
			c10.009-10.011,24.214-14.042,37.826-10.977c1.806,4.352,4.156,8.498,7.032,12.337l-40.318,40.318
			c-3.191,3.191-3.191,8.364,0,11.554c1.596,1.595,3.688,2.393,5.778,2.393c2.09,0,4.182-0.797,5.778-2.393l40.302-40.302
			c3.837,2.88,7.985,5.251,12.365,7.062C179.385,380.238,175.352,394.422,165.352,404.422z M296.851,425.048
			c0,9.312-3.048,18.074-8.809,25.334L256,490.7l-32.062-40.336c-5.75-7.252-8.789-16.006-8.789-25.317
			c0-14.157,7.195-27.052,18.985-34.51c4.354,1.801,8.947,3.07,13.695,3.752v57.018c0,4.512,3.657,8.17,8.17,8.17
			c4.513,0,8.17-3.658,8.17-8.17V394.29c4.749-0.682,9.342-1.952,13.698-3.753C289.657,397.995,296.851,410.889,296.851,425.048z
			 M404.419,346.65c6.585,6.585,10.627,14.935,11.687,24.142l5.852,51.167l-51.192-5.851c-9.194-1.062-17.534-5.103-24.117-11.687
			c-10-9.999-14.031-24.185-10.987-37.78c4.379-1.813,8.526-4.182,12.362-7.061l40.302,40.302c1.596,1.595,3.688,2.393,5.778,2.393
			c2.09,0,4.182-0.797,5.778-2.393c3.191-3.191,3.191-8.364,0-11.554l-40.318-40.318c2.876-3.84,5.227-7.986,7.033-12.339
			C380.204,332.607,394.409,336.637,404.419,346.65z M356.793,292.117c-3.464,1.836-5.135,5.872-3.984,9.619
			c4.461,14.52,0.571,30.201-10.152,40.924c-7.711,7.712-17.962,11.958-28.869,11.958c-4.099,0-8.153-0.608-12.053-1.806
			c-3.75-1.15-7.785,0.522-9.619,3.984c-7.115,13.421-20.953,21.759-36.117,21.759c-15.164,0-29.002-8.338-36.116-21.76
			c-1.447-2.729-4.258-4.346-7.219-4.346c-0.796,0-1.606,0.117-2.4,0.362c-3.901,1.199-7.956,1.806-12.05,1.806
			c-10.909,0-21.162-4.246-28.874-11.958c-10.723-10.721-14.612-26.403-10.151-40.923c1.151-3.746-0.521-7.783-3.984-9.619
			c-13.422-7.112-21.76-20.952-21.76-36.116c0-15.164,8.338-29.003,21.76-36.116c3.464-1.836,5.135-5.872,3.984-9.619
			c-4.461-14.52-0.571-30.201,10.152-40.924c7.71-7.711,17.965-11.958,28.872-11.958c4.096,0,8.149,0.608,12.052,1.806
			c3.747,1.151,7.785-0.522,9.618-3.984c7.114-13.421,20.952-21.759,36.116-21.759c15.164,0,29.002,8.338,36.116,21.76
			c1.838,3.463,5.871,5.135,9.618,3.984c3.901-1.198,7.956-1.806,12.052-1.806c10.908,0,21.162,4.246,28.872,11.958
			c10.723,10.723,14.613,26.404,10.152,40.924c-1.151,3.746,0.521,7.784,3.984,9.619c13.422,7.111,21.76,20.951,21.76,36.115
			C378.553,271.166,370.215,285.005,356.793,292.117z M450.363,288.064c-7.251,5.75-16.005,8.789-25.316,8.789
			c-14.157,0-27.052-7.195-34.51-18.984c1.801-4.354,3.07-8.948,3.752-13.697h57.018c4.513,0,8.17-3.658,8.17-8.17
			c0-4.512-3.657-8.17-8.17-8.17h-57.018c-0.682-4.75-1.951-9.343-3.753-13.699c7.458-11.788,20.353-18.982,34.511-18.982
			c9.312,0,18.074,3.047,25.334,8.809l40.317,32.042L450.363,288.064z"/>
	</g>
</g>
</svg>