<svg width="635" height="164" viewBox="0 0 635 164" fill="none" xmlns="http://www.w3.org/2000/svg">
<g clip-path="url(#clip0_66_168)">
<path d="M563.495 22.1289H377.201C338.06 22.1289 306.33 53.8588 306.33 92.9997V93.0001C306.33 132.141 338.06 163.871 377.201 163.871H563.495C602.636 163.871 634.366 132.141 634.366 93.0001V92.9997C634.366 53.8588 602.636 22.1289 563.495 22.1289Z" fill="#00C707"/>
<path d="M381.461 80.8592C381.005 79.1681 380.334 77.6783 379.448 76.3899C378.562 75.0746 377.475 73.9606 376.186 73.0479C374.898 72.1353 373.422 71.4508 371.757 70.9944C370.093 70.5113 368.268 70.2697 366.281 70.2697C362.282 70.2697 358.819 71.236 355.893 73.1687C352.994 75.1014 350.753 77.9199 349.169 81.6243C347.585 85.3017 346.793 89.7711 346.793 95.0323C346.793 100.321 347.558 104.83 349.088 108.562C350.619 112.293 352.833 115.138 355.732 117.098C358.631 119.057 362.148 120.037 366.281 120.037C369.932 120.037 373.019 119.446 375.542 118.265C378.092 117.057 380.025 115.353 381.34 113.152C382.656 110.951 383.313 108.36 383.313 105.381L387.018 105.824H366.966V91.2877H402.519V102.2C402.519 109.582 400.949 115.903 397.808 121.164C394.695 126.426 390.4 130.465 384.924 133.284C379.475 136.102 373.207 137.512 366.12 137.512C358.255 137.512 351.343 135.807 345.384 132.398C339.425 128.989 334.781 124.13 331.453 117.822C328.124 111.487 326.46 103.971 326.46 95.2739C326.46 88.5095 327.466 82.5101 329.48 77.2757C331.493 72.0145 334.298 67.5585 337.895 63.9079C341.519 60.2573 345.706 57.4924 350.457 55.6134C355.235 53.7344 360.376 52.7949 365.879 52.7949C370.657 52.7949 375.099 53.4794 379.206 54.8484C383.34 56.2174 386.991 58.1501 390.158 60.6465C393.352 63.1429 395.943 66.109 397.929 69.5449C399.916 72.9808 401.15 76.7523 401.634 80.8592H381.461ZM454.169 109.689V74.5377H473.818V136.384H455.054V124.869H454.41C453.041 128.654 450.706 131.66 447.404 133.888C444.129 136.089 440.17 137.19 435.526 137.19C431.312 137.19 427.607 136.223 424.413 134.291C421.219 132.358 418.736 129.66 416.964 126.197C415.193 122.708 414.293 118.628 414.267 113.957V74.5377H433.956V110.092C433.983 113.447 434.868 116.091 436.613 118.024C438.358 119.956 440.734 120.923 443.74 120.923C445.7 120.923 447.458 120.493 449.015 119.634C450.598 118.748 451.847 117.473 452.759 115.809C453.699 114.118 454.169 112.078 454.169 109.689ZM486.35 136.384V74.5377H505.476V85.8118H506.12C507.247 81.7316 509.086 78.6984 511.636 76.712C514.186 74.6988 517.152 73.6922 520.534 73.6922C521.447 73.6922 522.387 73.7593 523.353 73.8935C524.319 74.0009 525.219 74.1753 526.051 74.4169V91.5293C525.111 91.2072 523.876 90.9522 522.346 90.7643C520.843 90.5764 519.501 90.4824 518.32 90.4824C515.985 90.4824 513.877 91.0059 511.998 92.0527C510.146 93.0728 508.683 94.5089 507.61 96.361C506.563 98.1864 506.039 100.334 506.039 102.804V136.384H486.35ZM573.975 109.689V74.5377H593.624V136.384H574.861V124.869H574.217C572.848 128.654 570.513 131.66 567.211 133.888C563.936 136.089 559.977 137.19 555.333 137.19C551.119 137.19 547.414 136.223 544.22 134.291C541.026 132.358 538.543 129.66 536.771 126.197C534.999 122.708 534.1 118.628 534.073 113.957V74.5377H553.763V110.092C553.789 113.447 554.675 116.091 556.42 118.024C558.165 119.956 560.54 120.923 563.547 120.923C565.506 120.923 567.265 120.493 568.822 119.634C570.405 118.748 571.653 117.473 572.566 115.809C573.506 114.118 573.975 112.078 573.975 109.689Z" fill="white"/>
<path d="M67.0063 83.2699C66.7542 80.496 65.632 78.34 63.6399 76.8018C61.6729 75.2383 58.8612 74.4566 55.2048 74.4566C52.7839 74.4566 50.7666 74.7718 49.1527 75.4022C47.5388 76.0326 46.3284 76.9026 45.5214 78.0122C44.7145 79.0965 44.2984 80.3447 44.2732 81.7569C44.2227 82.9169 44.4497 83.9382 44.954 84.8208C45.4836 85.7034 46.2401 86.4851 47.2236 87.1659C48.2323 87.8216 49.4427 88.4016 50.8548 88.9059C52.267 89.4103 53.8556 89.8516 55.6208 90.2298L62.2781 91.7428C66.1111 92.575 69.4902 93.6845 72.4154 95.0715C75.3658 96.4584 77.837 98.1101 79.8292 100.027C81.8465 101.943 83.3722 104.15 84.4061 106.646C85.44 109.143 85.9695 111.942 85.9947 115.043C85.9695 119.935 84.7339 124.134 82.2878 127.639C79.8418 131.144 76.324 133.83 71.7345 135.696C67.1702 137.562 61.6603 138.495 55.2048 138.495C48.724 138.495 43.0754 137.524 38.2589 135.583C33.4425 133.641 29.6977 130.691 27.0247 126.731C24.3517 122.772 22.9774 117.767 22.9018 111.715H40.8311C40.9824 114.211 41.6506 116.292 42.8358 117.956C44.021 119.62 45.6475 120.881 47.7153 121.738C49.8083 122.596 52.2292 123.025 54.9778 123.025C57.4995 123.025 59.643 122.684 61.4081 122.003C63.1986 121.322 64.5729 120.377 65.5311 119.166C66.4894 117.956 66.9811 116.569 67.0063 115.006C66.9811 113.543 66.5272 112.295 65.6446 111.261C64.762 110.202 63.4003 109.294 61.5594 108.537C59.7438 107.756 57.4239 107.037 54.5996 106.381L46.5049 104.49C39.7972 102.952 34.5142 100.468 30.656 97.0384C26.7978 93.5837 24.8813 88.9185 24.9065 83.043C24.8813 78.2517 26.1674 74.0531 28.7647 70.4471C31.3621 66.841 34.9555 64.0293 39.545 62.012C44.1345 59.9946 49.367 58.9859 55.2426 58.9859C61.2442 58.9859 66.4515 60.0072 70.8645 62.0498C75.3027 64.0672 78.7448 66.9041 81.1909 70.5605C83.6369 74.217 84.8852 78.4535 84.9356 83.2699H67.0063ZM95.4511 137.512V79.4117H113.04V90.0785H113.683C114.893 86.5481 116.936 83.7616 119.811 81.7191C122.685 79.6765 126.115 78.6552 130.099 78.6552C134.134 78.6552 137.589 79.6891 140.463 81.7569C143.338 83.8247 145.166 86.5986 145.948 90.0785H146.553C147.638 86.6238 149.756 83.8625 152.908 81.7947C156.06 79.7017 159.78 78.6552 164.067 78.6552C169.564 78.6552 174.027 80.4204 177.457 83.9508C180.886 87.4559 182.601 92.2724 182.601 98.4001V137.512H164.104V102.637C164.104 99.7366 163.361 97.5301 161.873 96.0171C160.385 94.4789 158.456 93.7098 156.085 93.7098C153.539 93.7098 151.534 94.5419 150.071 96.2062C148.634 97.8454 147.915 100.052 147.915 102.826V137.512H130.137V102.447C130.137 99.7492 129.406 97.6184 127.943 96.0549C126.481 94.4915 124.552 93.7098 122.156 93.7098C120.542 93.7098 119.117 94.1006 117.882 94.8823C116.646 95.6389 115.675 96.7232 114.969 98.1353C114.288 99.5475 113.948 101.212 113.948 103.128V137.512H95.4511ZM194.062 137.512V79.4117H211.651V90.0785H212.294C213.505 86.5481 215.547 83.7616 218.422 81.7191C221.297 79.6765 224.726 78.6552 228.71 78.6552C232.745 78.6552 236.2 79.6891 239.075 81.7569C241.949 83.8247 243.778 86.5986 244.559 90.0785H245.165C246.249 86.6238 248.367 83.8625 251.519 81.7947C254.671 79.7017 258.391 78.6552 262.678 78.6552C268.175 78.6552 272.638 80.4204 276.068 83.9508C279.498 87.4559 281.212 92.2724 281.212 98.4001V137.512H262.716V102.637C262.716 99.7366 261.972 97.5301 260.484 96.0171C258.996 94.4789 257.067 93.7098 254.697 93.7098C252.15 93.7098 250.145 94.5419 248.682 96.2062C247.245 97.8454 246.526 100.052 246.526 102.826V137.512H228.748V102.447C228.748 99.7492 228.017 97.6184 226.554 96.0549C225.092 94.4915 223.163 93.7098 220.767 93.7098C219.153 93.7098 217.728 94.1006 216.493 94.8823C215.257 95.6389 214.286 96.7232 213.58 98.1353C212.899 99.5475 212.559 101.212 212.559 103.128V137.512H194.062Z" fill="black"/>
<path d="M172.123 31.626C174.714 39.9576 174.926 48.3471 171.007 53.1103C166.94 49.5263 166.211 46.6553 166.507 41.5536C161.142 50.3533 160.473 57.1986 163.2 61.5323C159.457 62.1008 156.066 59.5427 153.477 56.4495C153.896 61.8058 155.972 69.1121 159.315 74.168C156.82 74.1605 154.401 73.317 151.702 71.5555C165.079 100.432 182.127 100.602 195.759 70.7366C192.925 71.9167 190.41 71.9272 186.695 70.9688C190.094 65.9321 195.266 56.408 191.518 50.135C190.438 55.2774 186.031 59.7594 181.053 61.0478C183.978 53.3062 180.384 40.0116 172.123 31.626ZM179.709 73.2155C181.826 75.1123 183.105 77.905 182.978 80.9756C182.755 86.4342 178.172 90.6559 172.713 90.432C167.255 90.2081 163.033 85.6252 163.257 80.1667C163.481 74.708 168.063 70.4861 173.522 70.7103C175.91 70.808 178.063 71.7402 179.709 73.2155Z" fill="#0A0A0A"/>
</g>
<defs>
<clipPath id="clip0_66_168">
<rect width="634" height="164" fill="white" transform="translate(0.448242)"/>
</clipPath>
</defs>
</svg>
